<?xml version="1.0" encoding="utf-8"?>
<!-- Generator: Adobe Illustrator 23.0.1, SVG Export Plug-In . SVG Version: 6.00 Build 0)  -->
<svg version="1.1" id="レイヤー_1" width="292" height="89" preserveAspectRatio="xMinYMid" xmlns="http://www.w3.org/2000/svg" xmlns:xlink="http://www.w3.org/1999/xlink" x="0px"
	 y="0px" viewBox="0 0 292 89" style="enable-background:new 0 0 292 89;" xml:space="preserve">
<style type="text/css">
	.st0{fill:#221714;}
	.st1{fill:#232C6D;}
	.st2{fill:#E3CC59;}
</style>
<g>
	<g>
		<g>
			<path class="st0" d="M9.4,80.5H3.7l-1.5,3.2H0.1l6.6-14.1L13,83.7h-2.2L9.4,80.5z M8.6,78.6l-2-4.5l-2.1,4.5H8.6z"/>
			<path class="st0" d="M14.3,75.3h1.9v0.8c0.7-0.7,1.4-1,2.3-1c1,0,1.7,0.3,2.3,0.9c0.5,0.5,0.7,1.4,0.7,2.6v5.1h-1.9V79
				c0-0.8-0.1-1.4-0.3-1.7C19,77,18.5,76.8,18,76.8c-0.6,0-1.1,0.2-1.4,0.6c-0.3,0.4-0.4,1.1-0.4,2.2v4h-1.9V75.3z"/>
			<path class="st0" d="M26.3,82.1l-3.8-6.8h2.2l2.6,4.8l2.4-4.8h2.2l-6.7,12.9H23L26.3,82.1z"/>
			<path class="st0" d="M35.2,77.1v6.6h-1.9v-6.6h-0.8v-1.8h0.8v-3.1h1.9v3.1h1.5v1.8H35.2z"/>
			<path class="st0" d="M37.7,71.8c0-0.3,0.1-0.6,0.4-0.9c0.2-0.2,0.5-0.4,0.9-0.4c0.3,0,0.6,0.1,0.9,0.4c0.2,0.2,0.4,0.5,0.4,0.9
				c0,0.3-0.1,0.6-0.4,0.9c-0.2,0.2-0.5,0.4-0.9,0.4c-0.3,0-0.6-0.1-0.9-0.4C37.8,72.5,37.7,72.2,37.7,71.8z M39.9,75.3v8.4H38v-8.4
				H39.9z"/>
			<path class="st0" d="M42.4,75.3h1.9v0.8c0.4-0.4,0.7-0.7,1-0.8c0.3-0.1,0.6-0.2,1.1-0.2c0.9,0,1.7,0.4,2.2,1.2
				c0.6-0.8,1.4-1.2,2.5-1.2c1.9,0,2.8,1.1,2.8,3.4v5.2h-1.9V79c0-0.8-0.1-1.4-0.3-1.7c-0.2-0.3-0.5-0.5-1-0.5
				c-0.5,0-0.9,0.2-1.2,0.6c-0.2,0.4-0.4,1-0.4,1.9v4.3h-1.9v-4.6c0-1.5-0.4-2.2-1.3-2.2c-0.5,0-0.9,0.2-1.2,0.6
				c-0.2,0.4-0.4,1-0.4,1.9v4.3h-1.9V75.3z"/>
			<path class="st0" d="M63.9,80h-6c0.1,0.7,0.3,1.2,0.7,1.6c0.4,0.4,0.9,0.6,1.5,0.6c0.5,0,0.9-0.1,1.2-0.3
				c0.3-0.2,0.7-0.7,1.1-1.3l1.6,0.9c-0.3,0.4-0.5,0.8-0.8,1.1c-0.3,0.3-0.6,0.6-0.9,0.8c-0.3,0.2-0.7,0.3-1,0.4
				c-0.4,0.1-0.8,0.1-1.2,0.1c-1.2,0-2.2-0.4-3-1.2c-0.8-0.8-1.1-1.9-1.1-3.2c0-1.3,0.4-2.4,1.1-3.2c0.7-0.8,1.7-1.2,2.9-1.2
				c1.2,0,2.2,0.4,2.9,1.2c0.7,0.8,1.1,1.9,1.1,3.2L63.9,80z M61.9,78.4c-0.3-1-0.9-1.5-2-1.5c-0.2,0-0.5,0-0.7,0.1
				c-0.2,0.1-0.4,0.2-0.6,0.3c-0.2,0.1-0.3,0.3-0.4,0.5c-0.1,0.2-0.2,0.4-0.3,0.6H61.9z"/>
			<path class="st0" d="M67.2,81.2l1.7,0.7l-2.4,4.9l-1.3-0.5L67.2,81.2z"/>
			<path class="st0" d="M83,75.3H85v8.4H83v-0.9c-0.8,0.7-1.7,1.1-2.6,1.1c-1.2,0-2.1-0.4-2.9-1.3c-0.8-0.9-1.1-1.9-1.1-3.2
				c0-1.3,0.4-2.3,1.1-3.1c0.8-0.8,1.7-1.3,2.8-1.3c1,0,1.8,0.4,2.6,1.2V75.3z M78.5,79.5c0,0.8,0.2,1.5,0.6,2
				c0.4,0.5,1,0.8,1.7,0.8c0.7,0,1.3-0.2,1.7-0.7c0.4-0.5,0.7-1.2,0.7-1.9c0-0.8-0.2-1.4-0.7-1.9c-0.4-0.5-1-0.7-1.7-0.7
				c-0.7,0-1.2,0.3-1.7,0.8C78.7,78.1,78.5,78.7,78.5,79.5z"/>
			<path class="st0" d="M87.4,75.3h1.9v0.8c0.7-0.7,1.4-1,2.3-1c1,0,1.7,0.3,2.3,0.9c0.5,0.5,0.7,1.4,0.7,2.6v5.1h-1.9V79
				c0-0.8-0.1-1.4-0.3-1.7c-0.2-0.3-0.6-0.5-1.2-0.5c-0.6,0-1.1,0.2-1.4,0.6c-0.3,0.4-0.4,1.1-0.4,2.2v4h-1.9V75.3z"/>
			<path class="st0" d="M99.4,82.1l-3.8-6.8h2.2l2.6,4.8l2.4-4.8h2.2l-6.7,12.9h-2.2L99.4,82.1z"/>
			<path class="st0" d="M107.4,75.3l2.2,4.8l2.4-5.5l2.4,5.5l2.2-4.8h2.2l-4.4,9l-2.3-5.4l-2.4,5.4l-4.4-9H107.4z"/>
			<path class="st0" d="M120,69.2h1.9V76c0.7-0.6,1.4-0.9,2.3-0.9c0.9,0,1.7,0.3,2.3,0.9c0.5,0.5,0.7,1.4,0.7,2.6v5.1h-1.9v-4.9
				c0-0.7-0.1-1.2-0.4-1.5c-0.2-0.3-0.6-0.5-1.1-0.5c-0.7,0-1.2,0.2-1.4,0.6c-0.3,0.4-0.4,1.2-0.4,2.2v4H120V69.2z"/>
			<path class="st0" d="M137.2,80h-6c0.1,0.7,0.3,1.2,0.7,1.6c0.4,0.4,0.9,0.6,1.5,0.6c0.5,0,0.9-0.1,1.2-0.3
				c0.3-0.2,0.7-0.7,1.1-1.3l1.6,0.9c-0.3,0.4-0.5,0.8-0.8,1.1c-0.3,0.3-0.6,0.6-0.9,0.8c-0.3,0.2-0.7,0.3-1,0.4
				c-0.4,0.1-0.8,0.1-1.2,0.1c-1.2,0-2.2-0.4-3-1.2c-0.8-0.8-1.1-1.9-1.1-3.2c0-1.3,0.4-2.4,1.1-3.2c0.7-0.8,1.7-1.2,2.9-1.2
				c1.2,0,2.2,0.4,2.9,1.2c0.7,0.8,1.1,1.9,1.1,3.2L137.2,80z M135.2,78.4c-0.3-1-0.9-1.5-2-1.5c-0.2,0-0.5,0-0.7,0.1
				c-0.2,0.1-0.4,0.2-0.6,0.3c-0.2,0.1-0.3,0.3-0.4,0.5c-0.1,0.2-0.2,0.4-0.3,0.6H135.2z"/>
			<path class="st0" d="M139.3,75.3h1.9v0.7c0.4-0.4,0.7-0.6,0.9-0.8c0.3-0.1,0.6-0.2,1-0.2c0.5,0,1,0.2,1.6,0.5l-0.9,1.8
				c-0.4-0.3-0.7-0.4-1.1-0.4c-1.1,0-1.6,0.8-1.6,2.4v4.3h-1.9V75.3z"/>
			<path class="st0" d="M153.4,80h-6c0.1,0.7,0.3,1.2,0.7,1.6c0.4,0.4,0.9,0.6,1.5,0.6c0.5,0,0.9-0.1,1.2-0.3
				c0.3-0.2,0.7-0.7,1.1-1.3l1.6,0.9c-0.3,0.4-0.5,0.8-0.8,1.1c-0.3,0.3-0.6,0.6-0.9,0.8c-0.3,0.2-0.7,0.3-1,0.4
				c-0.4,0.1-0.8,0.1-1.2,0.1c-1.2,0-2.2-0.4-3-1.2c-0.8-0.8-1.1-1.9-1.1-3.2c0-1.3,0.4-2.4,1.1-3.2c0.7-0.8,1.7-1.2,2.9-1.2
				c1.2,0,2.2,0.4,2.9,1.2c0.7,0.8,1.1,1.9,1.1,3.2L153.4,80z M151.4,78.4c-0.3-1-0.9-1.5-2-1.5c-0.2,0-0.5,0-0.7,0.1
				c-0.2,0.1-0.4,0.2-0.6,0.3c-0.2,0.1-0.3,0.3-0.4,0.5c-0.1,0.2-0.2,0.4-0.3,0.6H151.4z"/>
			<path class="st0" d="M167.1,75.3h1.9v8.4h-1.9v-0.9c-0.8,0.7-1.7,1.1-2.6,1.1c-1.2,0-2.1-0.4-2.9-1.3c-0.8-0.9-1.1-1.9-1.1-3.2
				c0-1.3,0.4-2.3,1.1-3.1c0.8-0.8,1.7-1.3,2.8-1.3c1,0,1.8,0.4,2.6,1.2V75.3z M162.5,79.5c0,0.8,0.2,1.5,0.6,2
				c0.4,0.5,1,0.8,1.7,0.8c0.7,0,1.3-0.2,1.7-0.7c0.4-0.5,0.7-1.2,0.7-1.9c0-0.8-0.2-1.4-0.7-1.9c-0.4-0.5-1-0.7-1.7-0.7
				c-0.7,0-1.2,0.3-1.7,0.8C162.8,78.1,162.5,78.7,162.5,79.5z"/>
			<path class="st0" d="M173.4,69.2v14.5h-1.9V69.2H173.4z"/>
			<path class="st0" d="M177.8,69.2v14.5h-1.9V69.2H177.8z"/>
			<path class="st0" d="M180.3,75.3h1.9v0.7c0.4-0.4,0.7-0.6,0.9-0.8c0.3-0.1,0.6-0.2,1-0.2c0.5,0,1,0.2,1.6,0.5l-0.9,1.8
				c-0.4-0.3-0.7-0.4-1.1-0.4c-1.1,0-1.6,0.8-1.6,2.4v4.3h-1.9V75.3z"/>
			<path class="st0" d="M186.3,79.4c0-1.2,0.4-2.2,1.3-3.1c0.9-0.8,1.9-1.3,3.2-1.3c1.2,0,2.3,0.4,3.2,1.3c0.9,0.9,1.3,1.9,1.3,3.1
				c0,1.3-0.4,2.3-1.3,3.2c-0.9,0.8-1.9,1.3-3.2,1.3c-1.3,0-2.3-0.4-3.2-1.3C186.7,81.8,186.3,80.7,186.3,79.4z M188.3,79.5
				c0,0.8,0.2,1.5,0.7,2c0.5,0.5,1.1,0.7,1.8,0.7c0.8,0,1.4-0.2,1.8-0.7c0.5-0.5,0.7-1.1,0.7-2s-0.2-1.5-0.7-2
				c-0.5-0.5-1.1-0.7-1.8-0.7c-0.7,0-1.3,0.2-1.8,0.7C188.5,78.1,188.3,78.7,188.3,79.5z"/>
			<path class="st0" d="M199.2,75.3v4.8c0,1.4,0.5,2.1,1.6,2.1c1.1,0,1.6-0.7,1.6-2.1v-4.8h1.9v4.8c0,0.7-0.1,1.2-0.2,1.7
				c-0.2,0.4-0.4,0.8-0.8,1.2c-0.7,0.6-1.5,0.9-2.5,0.9c-1,0-1.8-0.3-2.5-0.9c-0.4-0.3-0.7-0.7-0.9-1.2c-0.2-0.4-0.2-1-0.2-1.7v-4.8
				H199.2z"/>
			<path class="st0" d="M206.9,75.3h1.9v0.8c0.7-0.7,1.4-1,2.3-1c1,0,1.7,0.3,2.3,0.9c0.5,0.5,0.7,1.4,0.7,2.6v5.1h-1.9V79
				c0-0.8-0.1-1.4-0.3-1.7c-0.2-0.3-0.6-0.5-1.2-0.5c-0.6,0-1.1,0.2-1.4,0.6c-0.3,0.4-0.4,1.1-0.4,2.2v4h-1.9V75.3z"/>
			<path class="st0" d="M222.7,69.2h1.9v14.5h-1.9v-0.9c-0.8,0.7-1.6,1.1-2.6,1.1c-1.1,0-2.1-0.4-2.9-1.3c-0.8-0.9-1.1-1.9-1.1-3.2
				c0-1.2,0.4-2.3,1.1-3.1c0.7-0.8,1.7-1.3,2.8-1.3c1,0,1.9,0.4,2.6,1.2V69.2z M218.1,79.5c0,0.8,0.2,1.5,0.6,2
				c0.4,0.5,1,0.8,1.7,0.8c0.7,0,1.3-0.2,1.7-0.7c0.4-0.5,0.7-1.2,0.7-1.9c0-0.8-0.2-1.4-0.7-1.9c-0.4-0.5-1-0.7-1.7-0.7
				c-0.7,0-1.2,0.3-1.7,0.8C218.3,78.1,218.1,78.7,218.1,79.5z"/>
			<path class="st0" d="M237.3,76.7l-1.6,0.8c-0.3-0.5-0.6-0.8-0.9-0.8c-0.2,0-0.3,0.1-0.5,0.2c-0.1,0.1-0.2,0.3-0.2,0.5
				c0,0.3,0.4,0.6,1.1,1c1,0.4,1.7,0.8,2.1,1.2c0.4,0.4,0.5,0.9,0.5,1.5c0,0.8-0.3,1.5-0.9,2c-0.6,0.5-1.3,0.8-2.1,0.8
				c-1.4,0-2.4-0.7-3-2.1l1.6-0.8c0.2,0.4,0.4,0.7,0.5,0.8c0.2,0.2,0.5,0.3,0.8,0.3c0.7,0,1-0.3,1-0.9c0-0.3-0.3-0.7-0.8-1
				c-0.2-0.1-0.4-0.2-0.6-0.3c-0.2-0.1-0.4-0.2-0.6-0.3c-0.6-0.3-1-0.5-1.2-0.8c-0.3-0.3-0.4-0.8-0.4-1.3c0-0.7,0.2-1.3,0.7-1.8
				c0.5-0.5,1.1-0.7,1.9-0.7C236,75.1,236.8,75.6,237.3,76.7z"/>
			<path class="st0" d="M241.6,75.3v4.8c0,1.4,0.5,2.1,1.6,2.1c1.1,0,1.6-0.7,1.6-2.1v-4.8h1.9v4.8c0,0.7-0.1,1.2-0.2,1.7
				c-0.2,0.4-0.4,0.8-0.8,1.2c-0.7,0.6-1.5,0.9-2.5,0.9c-1,0-1.8-0.3-2.5-0.9c-0.4-0.3-0.7-0.7-0.9-1.2c-0.2-0.4-0.2-1-0.2-1.7v-4.8
				H241.6z"/>
			<path class="st0" d="M251.1,88.2h-1.9V75.3h1.9v0.9c0.8-0.8,1.6-1.1,2.6-1.1c1.2,0,2.1,0.4,2.8,1.3c0.8,0.8,1.1,1.9,1.1,3.2
				c0,1.3-0.4,2.3-1.1,3.1c-0.7,0.8-1.7,1.2-2.8,1.2c-1,0-1.9-0.4-2.6-1.2V88.2z M255.7,79.6c0-0.8-0.2-1.5-0.7-2
				c-0.4-0.5-1-0.8-1.7-0.8c-0.7,0-1.3,0.2-1.7,0.7c-0.4,0.5-0.7,1.1-0.7,1.9c0,0.8,0.2,1.4,0.7,1.9c0.4,0.5,1,0.7,1.7,0.7
				c0.7,0,1.2-0.3,1.7-0.8C255.5,80.9,255.7,80.3,255.7,79.6z"/>
			<path class="st0" d="M261.7,88.2h-1.9V75.3h1.9v0.9c0.8-0.8,1.6-1.1,2.6-1.1c1.2,0,2.1,0.4,2.8,1.3c0.8,0.8,1.1,1.9,1.1,3.2
				c0,1.3-0.4,2.3-1.1,3.1c-0.7,0.8-1.7,1.2-2.8,1.2c-1,0-1.9-0.4-2.6-1.2V88.2z M266.3,79.6c0-0.8-0.2-1.5-0.7-2
				c-0.4-0.5-1-0.8-1.7-0.8c-0.7,0-1.3,0.2-1.7,0.7c-0.4,0.5-0.7,1.1-0.7,1.9c0,0.8,0.2,1.4,0.7,1.9c0.4,0.5,1,0.7,1.7,0.7
				c0.7,0,1.2-0.3,1.7-0.8C266.1,80.9,266.3,80.3,266.3,79.6z"/>
			<path class="st0" d="M269.9,79.4c0-1.2,0.4-2.2,1.3-3.1c0.9-0.8,1.9-1.3,3.2-1.3c1.2,0,2.3,0.4,3.2,1.3c0.9,0.9,1.3,1.9,1.3,3.1
				c0,1.3-0.4,2.3-1.3,3.2c-0.9,0.8-1.9,1.3-3.2,1.3c-1.3,0-2.3-0.4-3.2-1.3C270.3,81.8,269.9,80.7,269.9,79.4z M271.9,79.5
				c0,0.8,0.2,1.5,0.7,2c0.5,0.5,1.1,0.7,1.8,0.7c0.8,0,1.4-0.2,1.8-0.7c0.5-0.5,0.7-1.1,0.7-2s-0.2-1.5-0.7-2
				c-0.5-0.5-1.1-0.7-1.8-0.7c-0.7,0-1.3,0.2-1.8,0.7C272.1,78.1,271.9,78.7,271.9,79.5z"/>
			<path class="st0" d="M280.9,75.3h1.9v0.7c0.4-0.4,0.7-0.6,0.9-0.8c0.3-0.1,0.6-0.2,1-0.2c0.5,0,1,0.2,1.6,0.5l-0.9,1.8
				c-0.4-0.3-0.7-0.4-1.1-0.4c-1.1,0-1.6,0.8-1.6,2.4v4.3h-1.9V75.3z"/>
			<path class="st0" d="M290.1,77.1v6.6h-1.9v-6.6h-0.8v-1.8h0.8v-3.1h1.9v3.1h1.5v1.8H290.1z"/>
		</g>
	</g>
	<g>
		<path class="st1" d="M75.8,58.3v-35h11.7v35H75.8z"/>
		<rect x="75.8" y="0" class="st2" width="11.7" height="11.7"/>
		<g>
			<path class="st0" d="M279.9,58.3h-46.7V0h11.7v46.6h46.6L279.9,58.3z"/>
		</g>
		<path class="st1" d="M46.7,58.3h11.7V0L29.2,29.2L0,0v58.2h11.7l0-11.6c0-9.7,7.8-17.5,17.5-17.5c9.7,0,17.5,7.8,17.5,17.5V58.3z"
			/>
		<path class="st0" d="M128.4,58.3c-16.1,0-29.2-13.1-29.2-29.2C99.2,13.1,112.3,0,128.4,0h23.2v11.7h-23.2
			c-9.7,0-17.5,7.8-17.5,17.5c0,9.7,7.8,17.5,17.5,17.5h23.2v11.7L128.4,58.3z"/>
		<path class="st0" d="M192.4,0c-16.1,0-29.2,13.1-29.2,29.2c0,16.1,13.1,29.2,29.2,29.2c16.1,0,29.2-13.1,29.2-29.2
			C221.6,13.1,208.5,0,192.4,0z M192.4,46.6c-9.7,0-17.5-7.8-17.5-17.5c0-9.7,7.8-17.5,17.5-17.5c9.7,0,17.5,7.8,17.5,17.5
			C209.9,38.8,202.1,46.6,192.4,46.6z"/>
	</g>
</g>
</svg>
